HIERARCHY
ROOT Hips
{
	OFFSET 15.585500 22.159004 44.358299
	CHANNELS 6 Xposition Yposition Zposition Zrotation Xrotation Yrotation
	JOINT Chest
	{
		OFFSET -0.128500 0.160400 6.566002
		CHANNELS 6 Xposition Yposition Zposition Zrotation Xrotation Yrotation
		JOINT Chest2
		{
			OFFSET 0.000000 0.000000 3.554802
			CHANNELS 6 Xposition Yposition Zposition Zrotation Xrotation Yrotation
			JOINT Neck
			{
				OFFSET 0.000000 0.000000 8.267998
				CHANNELS 6 Xposition Yposition Zposition Zrotation Xrotation Yrotation
				JOINT Head
				{
					OFFSET 0.000000 0.000002 2.173897
					CHANNELS 6 Xposition Yposition Zposition Zrotation Xrotation Yrotation
					End Site
					{
						OFFSET 0.000000 0.000000 7.718697
					}
				}
			}
			JOINT LeftCollar
			{
				OFFSET 2.057500 0.117599 5.946301
				CHANNELS 6 Xposition Yposition Zposition Zrotation Xrotation Yrotation
				JOINT LeftShoulder
				{
					OFFSET 4.957699 0.000000 0.000000
					CHANNELS 6 Xposition Yposition Zposition Zrotation Xrotation Yrotation
					JOINT LeftElbow
					{
						OFFSET 0.000000 0.000000 -8.465500
						CHANNELS 6 Xposition Yposition Zposition Zrotation Xrotation Yrotation
						JOINT LeftWrist
						{
							OFFSET 0.000000 -0.000002 -14.594898
							CHANNELS 6 Xposition Yposition Zposition Zrotation Xrotation Yrotation
							End Site
							{
								OFFSET 0.000000 0.000000 -2.173901
							}
						}
					}
				}
			}
			JOINT RightCollar
			{
				OFFSET -3.048500 -0.728800 6.604099
				CHANNELS 6 Xposition Yposition Zposition Zrotation Xrotation Yrotation
				JOINT RightShoulder
				{
					OFFSET -3.710299 0.000000 0.000000
					CHANNELS 6 Xposition Yposition Zposition Zrotation Xrotation Yrotation
					JOINT RightElbow
					{
						OFFSET 0.000000 0.000000 -10.450901
						CHANNELS 6 Xposition Yposition Zposition Zrotation Xrotation Yrotation
						JOINT RightWrist
						{
							OFFSET 0.000000 0.000000 -12.539200
							CHANNELS 6 Xposition Yposition Zposition Zrotation Xrotation Yrotation
							End Site
							{
								OFFSET 0.000000 -0.000002 -2.173901
							}
						}
					}
				}
			}
		}
	}
	JOINT LeftHip
	{
		OFFSET 2.442599 -0.601400 -2.767502
		CHANNELS 6 Xposition Yposition Zposition Zrotation Xrotation Yrotation
		JOINT LeftKnee
		{
			OFFSET 0.000000 -0.000002 -17.033703
			CHANNELS 6 Xposition Yposition Zposition Zrotation Xrotation Yrotation
			JOINT LeftAnkle
			{
				OFFSET 0.000000 -0.000002 -19.318800
				CHANNELS 6 Xposition Yposition Zposition Zrotation Xrotation Yrotation
				End Site
				{
					OFFSET 0.000000 -8.281900 0.000000
				}
			}
		}
	}
	JOINT RightHip
	{
		OFFSET -3.126200 -0.601400 -2.283501
		CHANNELS 6 Xposition Yposition Zposition Zrotation Xrotation Yrotation
		JOINT RightKnee
		{
			OFFSET 0.000000 -0.000002 -16.919401
			CHANNELS 6 Xposition Yposition Zposition Zrotation Xrotation Yrotation
			JOINT RightAnkle
			{
				OFFSET 0.000000 -0.000002 -18.035900
				CHANNELS 6 Xposition Yposition Zposition Zrotation Xrotation Yrotation
				End Site
				{
					OFFSET 0.000000 -9.230099 0.000000
				}
			}
		}
	}
}
MOTION
Frames: 7
Frame Time: 0.041667
26.372702 39.880302 9.249195 2.820489 -3.601529 10.573858 -0.128498 0.160400 6.566003 -3.480335 4.636211 -3.390167 0.000001 0.000003 3.554807 9.700022 -9.170437 0.601767 -0.000000 0.000004 8.268000 -45.250553 7.025591 11.013211 0.000004 0.000008 2.173894 -4.409648 -0.509467 -5.422272 2.057503 0.117603 5.946304 -31.254700 20.560133 -16.369715 4.957688 0.000007 -0.000005 -0.542663 -18.224606 -150.800414 0.000005 0.000002 -8.465499 -111.243141 -154.012023 -154.655195 -0.000004 -0.000003 -14.594896 -138.212334 -145.681337 -120.528250 -3.048501 -0.728793 6.604100 37.467559 4.960731 -24.309403 -3.710294 -0.000002 -0.000001 53.581669 -1.998238 132.075696 0.000001 0.000006 -10.450897 -74.184474 -65.635543 -37.201749 0.000004 -0.000001 -12.539198 335.763029 -19.880372 20.799114 2.442594 -0.601398 -2.767504 128.525309 -10.033623 96.788063 -0.000001 -0.000004 -17.033710 -176.307577 53.716552 168.146690 -0.000005 -0.000005 -19.318806 -134.124124 119.757013 389.098337 -3.126197 -0.601403 -2.283496 -134.021057 -21.217942 -95.940846 0.000002 -0.000006 -16.919399 170.305590 37.379785 -177.183658 -0.000003 -0.000003 -18.035894 -34.937709 41.212255 -208.814346
26.362400 39.877907 9.246799 2.847112 -3.585055 10.533278 -0.128496 0.160403 6.566002 -3.463450 4.685534 -3.537113 0.000003 -0.000004 3.554802 9.962687 -9.150682 0.666003 0.000001 -0.000002 8.268003 -45.352921 7.001948 11.261689 0.000001 0.000002 2.173899 -4.394294 -0.490969 -5.481899 2.057502 0.117594 5.946310 -31.354783 20.617906 -16.032617 4.957694 -0.000002 -0.000004 -0.113933 -18.018655 -150.627651 -0.000001 0.000007 -8.465499 -110.786645 -153.762708 -154.525749 0.000003 0.000001 -14.594892 -138.350331 -145.532685 -120.320681 -3.048504 -0.728803 6.604104 38.327907 5.337427 -24.512765 -3.710299 -0.000001 0.000003 53.442842 -2.353324 132.153355 0.000007 0.000010 -10.450901 -73.955594 -65.504991 -37.052465 0.000002 0.000001 -12.539198 335.652161 -19.990772 20.031963 2.442598 -0.601399 -2.767500 128.524312 -10.032237 96.743537 0.000001 -0.000005 -17.033712 -176.137137 53.655709 168.010687 -0.000004 0.000002 -19.318808 -134.195185 119.765318 389.022932 -3.126196 -0.601398 -2.283499 -134.024950 -21.309268 -95.847519 0.000001 -0.000002 -16.919397 170.316764 37.384269 -177.319907 -0.000005 0.000001 -18.035898 -34.958513 41.159611 -208.714721
26.351700 39.875603 9.244396 2.875602 -3.568140 10.488405 -0.128501 0.160394 6.566001 -3.449306 4.739572 -3.672551 -0.000001 -0.000005 3.554806 10.219915 -9.132136 0.728586 -0.000003 0.000000 8.267996 -45.477145 6.976409 11.523517 0.000002 0.000002 2.173901 -4.348532 -0.468263 -5.539043 2.057497 0.117597 5.946310 -31.455214 20.664399 -15.689809 4.957685 -0.000000 0.000002 -0.023839 -18.001771 -150.581547 -0.000004 0.000006 -8.465505 -110.715242 -153.510974 -154.365854 0.000005 0.000001 -14.594893 -138.471704 -145.386205 -120.093249 -3.048502 -0.728806 6.604100 39.167351 5.699174 -24.707163 -3.710299 0.000001 -0.000001 53.364732 -2.745814 132.196262 0.000003 0.000004 -10.450897 -77.525099 -64.026398 -40.565221 0.000003 -0.000001 -12.539193 337.741107 -20.153335 19.423564 2.442597 -0.601403 -2.767503 128.522905 -10.027335 96.694093 -0.000001 0.000001 -17.033709 -175.947217 53.584562 167.852213 -0.000001 0.000002 -19.318806 -134.288445 119.777571 388.949712 -3.126196 -0.601407 -2.283503 -134.030578 -21.407302 -95.751213 0.000001 0.000000 -16.919390 170.324168 37.388876 -177.459366 -0.000004 -0.000001 -18.035898 -34.982398 41.104720 -208.610616
26.340603 39.873306 9.241894 2.905855 -3.551000 10.437235 -0.128503 0.160403 6.566006 -3.438465 4.799690 -3.791846 -0.000002 -0.000005 3.554808 10.469212 -9.115448 0.788751 0.000003 0.000005 8.268002 -45.620719 6.948637 11.794315 -0.000003 0.000011 2.173906 -4.271931 -0.441594 -5.592160 2.057506 0.117604 5.946306 -31.554012 20.699527 -15.348642 4.957693 0.000004 -0.000002 0.021953 -18.065550 -150.516892 -0.000003 -0.000002 -8.465496 -110.725501 -153.197031 -154.151796 0.000003 0.000000 -14.594893 -138.572626 -145.243563 -119.841966 -3.048501 -0.728799 6.604098 39.957389 6.035746 -24.887560 -3.710302 -0.000000 -0.000005 53.366942 -3.157779 132.183640 0.000004 0.000007 -10.450897 -75.306346 -64.583100 -38.564078 0.000006 0.000004 -12.539198 336.502329 -20.163227 18.493659 2.442596 -0.601396 -2.767497 128.521470 -10.017036 96.638974 0.000001 -0.000009 -17.033707 -175.743213 53.503682 167.675543 -0.000004 0.000003 -19.318800 -134.405419 119.793226 388.882968 -3.126201 -0.601397 -2.283496 -134.037968 -21.512282 -95.653104 0.000003 -0.000002 -16.919392 170.328963 37.393445 -177.602499 -0.000003 -0.000001 -18.035900 -35.009193 41.047296 -208.501879
26.329004 39.871101 9.239300 2.938063 -3.533468 10.378584 -0.128500 0.160400 6.566009 -3.431561 4.866626 -3.891497 -0.000001 -0.000005 3.554805 10.708299 -9.101055 0.845831 0.000002 0.000004 8.267998 -45.765720 6.924289 12.089844 0.000005 0.000004 2.173896 -4.180471 -0.413261 -5.661256 2.057505 0.117599 5.946307 -31.649884 20.724052 -15.016147 4.957688 -0.000004 -0.000004 0.005052 -18.004628 -150.453659 -0.000007 0.000004 -8.465494 -110.820065 -152.906147 -154.073836 0.000008 0.000003 -14.594897 -138.649999 -145.105743 -119.562011 -3.048498 -0.728801 6.604098 40.675143 6.339291 -25.050752 -3.710296 0.000007 -0.000001 53.460925 -3.570722 132.098481 0.000004 0.000005 -10.450897 -72.943422 -65.129023 -36.449212 0.000011 0.000001 -12.539194 335.291691 -20.125238 17.605178 2.442595 -0.601398 -2.767503 128.456351 -10.325150 96.536412 -0.000001 -0.000004 -17.033714 -175.330601 53.522390 167.574252 -0.000004 0.000001 -19.318798 -134.608740 119.819536 388.821660 -3.126194 -0.601402 -2.283501 -134.120791 -21.150376 -95.613667 0.000002 -0.000003 -16.919390 170.513869 37.291737 -177.546615 -0.000002 -0.000001 -18.035894 -35.181867 40.994027 -208.410204
26.316700 39.868809 9.236706 2.972516 -3.515353 10.311150 -0.128500 0.160391 6.566005 -3.428961 4.940698 -3.969544 -0.000001 0.000003 3.554806 10.935495 -9.089519 0.899195 0.000001 0.000000 8.267995 -45.945607 6.885505 12.346266 0.000002 0.000004 2.173896 -4.035881 -0.379867 -5.680046 2.057502 0.117596 5.946300 -31.742662 20.739741 -14.696986 4.957692 0.000007 0.000005 0.093900 -17.938513 -150.409098 0.000000 0.000002 -8.465505 -110.818972 -152.644442 -153.911373 0.000001 0.000006 -14.594900 -138.702168 -144.971503 -119.248683 -3.048506 -0.728807 6.604098 41.306682 6.605871 -25.195089 -3.710296 -0.000002 0.000006 53.647318 -3.968369 131.929475 0.000004 0.000004 -10.450901 -75.528389 -64.046820 -39.087779 0.000007 0.000004 -12.539196 336.908725 -20.165054 17.041990 2.442594 -0.601403 -2.767502 128.434959 -10.398505 96.456908 -0.000001 0.000003 -17.033712 -175.053486 53.458678 167.402295 -0.000001 0.000001 -19.318804 -134.792349 119.842445 388.777619 -3.126199 -0.601413 -2.283498 -134.156253 -21.124032 -95.534402 0.000001 -0.000001 -16.919403 170.569686 37.264296 -177.632962 -0.000002 0.000006 -18.035900 -35.259028 40.933512 -208.299869
26.303600 39.866402 9.234001 3.009237 -3.496520 10.234134 -0.128499 0.160403 6.566003 -3.430959 5.021902 -4.025351 0.000001 0.000003 3.554801 11.149791 -9.080709 0.948680 0.000002 0.000000 8.267997 -46.114029 6.849460 12.620568 0.000003 0.000006 2.173895 -3.886104 -0.346468 -5.712696 2.057500 0.117601 5.946304 -31.832694 20.748703 -14.394226 4.957691 0.000013 -0.000002 0.197171 -17.862090 -150.348023 0.000001 0.000000 -8.465506 -110.827346 -152.374677 -153.737545 -0.000003 0.000006 -14.594893 -138.728464 -144.838806 -118.897775 -3.048506 -0.728803 6.604101 41.846906 6.834569 -25.321000 -3.710296 0.000004 -0.000004 53.873325 -4.375232 131.569224 0.000005 0.000009 -10.450899 -76.407653 -63.675688 -40.124493 0.000008 0.000002 -12.539201 337.707311 -20.133133 16.545575 2.442599 -0.601402 -2.767505 128.412201 -10.468648 96.371340 -0.000001 -0.000004 -17.033709 -174.775484 53.391756 167.229559 -0.000002 0.000006 -19.318800 -134.997473 119.866500 388.749396 -3.126197 -0.601409 -2.283499 -134.196128 -21.096110 -95.458403 0.000003 -0.000007 -16.919394 170.631895 37.235562 -177.721987 -0.000002 0.000002 -18.035894 -35.339774 40.870677 -208.185764
